{
	"asset":{
		"generator":"Khronos glTF Blender I/O v4.4.56",
		"version":"2.0"
	},
	"scene":0,
	"scenes":[
		{
			"name":"Scene",
			"nodes":[
				0
			]
		}
	],
	"nodes":[
		{
			"mesh":0,
			"name":"Cube"
		}
	],
	"materials":[
		{
			"doubleSided":true,
			"name":"Material",
			"pbrMetallicRoughness":{
				"baseColorTexture":{
					"index":0
				},
				"metallicFactor":0,
				"roughnessFactor":0.5
			}
		}
	],
	"meshes":[
		{
			"name":"Cube",
			"primitives":[
				{
					"attributes":{
						"POSITION":0,
						"NORMAL":1,
						"TEXCOORD_0":2
					},
					"indices":3,
					"material":0
				}
			]
		}
	],
	"textures":[
		{
			"sampler":0,
			"source":0
		}
	],
	"images":[
		{
			"mimeType":"image/png",
			"name":"wood-texture",
			"uri":"wood-texture.png"
		}
	],
	"accessors":[
		{
			"bufferView":0,
			"componentType":5126,
			"count":171,
			"max":[
				1.1507718563079834,
				3.013697862625122,
				1.2360804080963135
			],
			"min":[
				-1.1507718563079834,
				-0.7217346429824829,
				-1.2512521743774414
			],
			"type":"VEC3"
		},
		{
			"bufferView":1,
			"componentType":5126,
			"count":171,
			"type":"VEC3"
		},
		{
			"bufferView":2,
			"componentType":5126,
			"count":171,
			"type":"VEC2"
		},
		{
			"bufferView":3,
			"componentType":5123,
			"count":366,
			"type":"SCALAR"
		}
	],
	"bufferViews":[
		{
			"buffer":0,
			"byteLength":2052,
			"byteOffset":0,
			"target":34962
		},
		{
			"buffer":0,
			"byteLength":2052,
			"byteOffset":2052,
			"target":34962
		},
		{
			"buffer":0,
			"byteLength":1368,
			"byteOffset":4104,
			"target":34962
		},
		{
			"buffer":0,
			"byteLength":732,
			"byteOffset":5472,
			"target":34963
		}
	],
	"samplers":[
		{
			"magFilter":9729,
			"minFilter":9987
		}
	],
	"buffers":[
		{
			"byteLength":6204,
			"uri":"chair.bin"
		}
	]
}
