{
	"asset":{
		"generator":"Khronos glTF Blender I/O v4.4.56",
		"version":"2.0"
	},
	"scene":0,
	"scenes":[
		{
			"name":"Scene",
			"nodes":[
				7
			]
		}
	],
	"nodes":[
		{
			"name":"Bone.001",
			"rotation":[
				6.663891127800525e-08,
				-2.911595231580577e-08,
				0.002604451961815357,
				0.9999966621398926
			],
			"scale":[
				0.9999999403953552,
				0.9999999403953552,
				1
			],
			"translation":[
				0,
				2.8938732147216797,
				0
			]
		},
		{
			"name":"Bone.003",
			"rotation":[
				-3.7045683853875744e-08,
				-2.2450782566352245e-08,
				0.09354719519615173,
				0.9956148862838745
			],
			"translation":[
				5.960465898624534e-08,
				2.838529109954834,
				7.105427357601002e-15
			]
		},
		{
			"children":[
				1
			],
			"name":"Bone.002",
			"rotation":[
				2.8934033480254584e-07,
				1.101620981103224e-07,
				-0.7442077398300171,
				0.667948305606842
			],
			"scale":[
				0.9999999403953552,
				0.9999999403953552,
				1
			],
			"translation":[
				0,
				2.8938732147216797,
				0
			]
		},
		{
			"name":"Bone.005",
			"rotation":[
				9.203934503432265e-09,
				4.583072765740326e-08,
				-0.07122290134429932,
				0.9974604249000549
			],
			"scale":[
				0.9999999403953552,
				0.9999998807907104,
				1
			],
			"translation":[
				2.6645352591003757e-15,
				3.1192378997802734,
				1.2434497875801753e-14
			]
		},
		{
			"children":[
				3
			],
			"name":"Bone.004",
			"rotation":[
				-7.406150359656749e-08,
				-1.0187306287434694e-07,
				0.740945041179657,
				0.6715657114982605
			],
			"translation":[
				0,
				2.8938732147216797,
				0
			]
		},
		{
			"children":[
				0,
				2,
				4
			],
			"name":"Bone",
			"rotation":[
				-2.980232594040899e-08,
				1.1920927533992653e-07,
				0,
				1
			],
			"scale":[
				1,
				0.9999999403953552,
				0.9999999403953552
			],
			"translation":[
				0,
				-0.9299257397651672,
				0
			]
		},
		{
			"mesh":0,
			"name":"Cube",
			"skin":0
		},
		{
			"children":[
				6,
				5
			],
			"name":"Armature"
		}
	],
	"animations":[
		{
			"channels":[
				{
					"sampler":0,
					"target":{
						"node":5,
						"path":"translation"
					}
				},
				{
					"sampler":1,
					"target":{
						"node":5,
						"path":"rotation"
					}
				},
				{
					"sampler":2,
					"target":{
						"node":5,
						"path":"scale"
					}
				},
				{
					"sampler":3,
					"target":{
						"node":0,
						"path":"translation"
					}
				},
				{
					"sampler":4,
					"target":{
						"node":0,
						"path":"rotation"
					}
				},
				{
					"sampler":5,
					"target":{
						"node":0,
						"path":"scale"
					}
				},
				{
					"sampler":6,
					"target":{
						"node":2,
						"path":"translation"
					}
				},
				{
					"sampler":7,
					"target":{
						"node":2,
						"path":"rotation"
					}
				},
				{
					"sampler":8,
					"target":{
						"node":2,
						"path":"scale"
					}
				},
				{
					"sampler":9,
					"target":{
						"node":1,
						"path":"translation"
					}
				},
				{
					"sampler":10,
					"target":{
						"node":1,
						"path":"rotation"
					}
				},
				{
					"sampler":11,
					"target":{
						"node":1,
						"path":"scale"
					}
				},
				{
					"sampler":12,
					"target":{
						"node":4,
						"path":"translation"
					}
				},
				{
					"sampler":13,
					"target":{
						"node":4,
						"path":"rotation"
					}
				},
				{
					"sampler":14,
					"target":{
						"node":4,
						"path":"scale"
					}
				},
				{
					"sampler":15,
					"target":{
						"node":3,
						"path":"translation"
					}
				},
				{
					"sampler":16,
					"target":{
						"node":3,
						"path":"rotation"
					}
				},
				{
					"sampler":17,
					"target":{
						"node":3,
						"path":"scale"
					}
				}
			],
			"name":"ArmatureAction",
			"samplers":[
				{
					"input":7,
					"interpolation":"STEP",
					"output":8
				},
				{
					"input":7,
					"interpolation":"STEP",
					"output":9
				},
				{
					"input":7,
					"interpolation":"STEP",
					"output":10
				},
				{
					"input":7,
					"interpolation":"STEP",
					"output":11
				},
				{
					"input":7,
					"interpolation":"STEP",
					"output":12
				},
				{
					"input":7,
					"interpolation":"STEP",
					"output":13
				},
				{
					"input":7,
					"interpolation":"STEP",
					"output":14
				},
				{
					"input":7,
					"interpolation":"STEP",
					"output":15
				},
				{
					"input":7,
					"interpolation":"STEP",
					"output":16
				},
				{
					"input":7,
					"interpolation":"STEP",
					"output":17
				},
				{
					"input":7,
					"interpolation":"STEP",
					"output":18
				},
				{
					"input":7,
					"interpolation":"STEP",
					"output":19
				},
				{
					"input":7,
					"interpolation":"STEP",
					"output":20
				},
				{
					"input":21,
					"interpolation":"LINEAR",
					"output":22
				},
				{
					"input":7,
					"interpolation":"STEP",
					"output":23
				},
				{
					"input":7,
					"interpolation":"STEP",
					"output":24
				},
				{
					"input":21,
					"interpolation":"LINEAR",
					"output":25
				},
				{
					"input":7,
					"interpolation":"STEP",
					"output":26
				}
			]
		}
	],
	"materials":[
		{
			"doubleSided":true,
			"name":"Material",
			"pbrMetallicRoughness":{
				"baseColorFactor":[
					0.800000011920929,
					0.800000011920929,
					0.800000011920929,
					1
				],
				"metallicFactor":0,
				"roughnessFactor":0.5
			}
		}
	],
	"meshes":[
		{
			"name":"Cube",
			"primitives":[
				{
					"attributes":{
						"POSITION":0,
						"NORMAL":1,
						"TEXCOORD_0":2,
						"JOINTS_0":3,
						"WEIGHTS_0":4
					},
					"indices":5,
					"material":0
				}
			]
		}
	],
	"skins":[
		{
			"inverseBindMatrices":6,
			"joints":[
				5,
				0,
				2,
				1,
				4,
				3
			],
			"name":"Armature"
		}
	],
	"accessors":[
		{
			"bufferView":0,
			"componentType":5126,
			"count":167,
			"max":[
				5.338624477386475,
				6.314109802246094,
				1.5220613479614258
			],
			"min":[
				-5.158899307250977,
				-0.8395062685012817,
				-1.6652052402496338
			],
			"type":"VEC3"
		},
		{
			"bufferView":1,
			"componentType":5126,
			"count":167,
			"type":"VEC3"
		},
		{
			"bufferView":2,
			"componentType":5126,
			"count":167,
			"type":"VEC2"
		},
		{
			"bufferView":3,
			"componentType":5121,
			"count":167,
			"type":"VEC4"
		},
		{
			"bufferView":4,
			"componentType":5126,
			"count":167,
			"type":"VEC4"
		},
		{
			"bufferView":5,
			"componentType":5123,
			"count":816,
			"type":"SCALAR"
		},
		{
			"bufferView":6,
			"componentType":5126,
			"count":6,
			"type":"MAT4"
		},
		{
			"bufferView":7,
			"componentType":5126,
			"count":2,
			"max":[
				0.5416666666666666
			],
			"min":[
				0.041666666666666664
			],
			"type":"SCALAR"
		},
		{
			"bufferView":8,
			"componentType":5126,
			"count":2,
			"type":"VEC3"
		},
		{
			"bufferView":9,
			"componentType":5126,
			"count":2,
			"type":"VEC4"
		},
		{
			"bufferView":10,
			"componentType":5126,
			"count":2,
			"type":"VEC3"
		},
		{
			"bufferView":11,
			"componentType":5126,
			"count":2,
			"type":"VEC3"
		},
		{
			"bufferView":12,
			"componentType":5126,
			"count":2,
			"type":"VEC4"
		},
		{
			"bufferView":13,
			"componentType":5126,
			"count":2,
			"type":"VEC3"
		},
		{
			"bufferView":14,
			"componentType":5126,
			"count":2,
			"type":"VEC3"
		},
		{
			"bufferView":15,
			"componentType":5126,
			"count":2,
			"type":"VEC4"
		},
		{
			"bufferView":16,
			"componentType":5126,
			"count":2,
			"type":"VEC3"
		},
		{
			"bufferView":17,
			"componentType":5126,
			"count":2,
			"type":"VEC3"
		},
		{
			"bufferView":18,
			"componentType":5126,
			"count":2,
			"type":"VEC4"
		},
		{
			"bufferView":19,
			"componentType":5126,
			"count":2,
			"type":"VEC3"
		},
		{
			"bufferView":20,
			"componentType":5126,
			"count":2,
			"type":"VEC3"
		},
		{
			"bufferView":21,
			"componentType":5126,
			"count":13,
			"max":[
				0.5416666666666666
			],
			"min":[
				0.041666666666666664
			],
			"type":"SCALAR"
		},
		{
			"bufferView":22,
			"componentType":5126,
			"count":13,
			"type":"VEC4"
		},
		{
			"bufferView":23,
			"componentType":5126,
			"count":2,
			"type":"VEC3"
		},
		{
			"bufferView":24,
			"componentType":5126,
			"count":2,
			"type":"VEC3"
		},
		{
			"bufferView":25,
			"componentType":5126,
			"count":13,
			"type":"VEC4"
		},
		{
			"bufferView":26,
			"componentType":5126,
			"count":2,
			"type":"VEC3"
		}
	],
	"bufferViews":[
		{
			"buffer":0,
			"byteLength":2004,
			"byteOffset":0,
			"target":34962
		},
		{
			"buffer":0,
			"byteLength":2004,
			"byteOffset":2004,
			"target":34962
		},
		{
			"buffer":0,
			"byteLength":1336,
			"byteOffset":4008,
			"target":34962
		},
		{
			"buffer":0,
			"byteLength":668,
			"byteOffset":5344,
			"target":34962
		},
		{
			"buffer":0,
			"byteLength":2672,
			"byteOffset":6012,
			"target":34962
		},
		{
			"buffer":0,
			"byteLength":1632,
			"byteOffset":8684,
			"target":34963
		},
		{
			"buffer":0,
			"byteLength":384,
			"byteOffset":10316
		},
		{
			"buffer":0,
			"byteLength":8,
			"byteOffset":10700
		},
		{
			"buffer":0,
			"byteLength":24,
			"byteOffset":10708
		},
		{
			"buffer":0,
			"byteLength":32,
			"byteOffset":10732
		},
		{
			"buffer":0,
			"byteLength":24,
			"byteOffset":10764
		},
		{
			"buffer":0,
			"byteLength":24,
			"byteOffset":10788
		},
		{
			"buffer":0,
			"byteLength":32,
			"byteOffset":10812
		},
		{
			"buffer":0,
			"byteLength":24,
			"byteOffset":10844
		},
		{
			"buffer":0,
			"byteLength":24,
			"byteOffset":10868
		},
		{
			"buffer":0,
			"byteLength":32,
			"byteOffset":10892
		},
		{
			"buffer":0,
			"byteLength":24,
			"byteOffset":10924
		},
		{
			"buffer":0,
			"byteLength":24,
			"byteOffset":10948
		},
		{
			"buffer":0,
			"byteLength":32,
			"byteOffset":10972
		},
		{
			"buffer":0,
			"byteLength":24,
			"byteOffset":11004
		},
		{
			"buffer":0,
			"byteLength":24,
			"byteOffset":11028
		},
		{
			"buffer":0,
			"byteLength":52,
			"byteOffset":11052
		},
		{
			"buffer":0,
			"byteLength":208,
			"byteOffset":11104
		},
		{
			"buffer":0,
			"byteLength":24,
			"byteOffset":11312
		},
		{
			"buffer":0,
			"byteLength":24,
			"byteOffset":11336
		},
		{
			"buffer":0,
			"byteLength":208,
			"byteOffset":11360
		},
		{
			"buffer":0,
			"byteLength":24,
			"byteOffset":11568
		}
	],
	"buffers":[
		{
			"byteLength":11592,
			"uri":"guy.bin"
		}
	]
}
